ISO-10303-21;
HEADER;
/* Generated by software containing ST-Developer
 * from STEP Tools, Inc. (www.steptools.com) 
 */

FILE_DESCRIPTION(
/* description */ (''),
/* implementation_level */ '2;1');

FILE_NAME(
/* name */ '3DChameleon (home sensor bracket) v2.step',
/* time_stamp */ '2025-09-03T05:01:54-05:00',
/* author */ (''),
/* organization */ (''),
/* preprocessor_version */ 'ST-DEVELOPER v20.1',
/* originating_system */ 'Autodesk Translation Framework v14.10.0.0',
/* authorisation */ '');

FILE_SCHEMA (('AUTOMOTIVE_DESIGN { 1 0 10303 214 3 1 1 }'));
ENDSEC;

DATA;
#10=MECHANICAL_DESIGN_GEOMETRIC_PRESENTATION_REPRESENTATION('',(#13),#1073);
#11=SHAPE_REPRESENTATION_RELATIONSHIP('SRR','None',#1080,#12);
#12=ADVANCED_BREP_SHAPE_REPRESENTATION('',(#14),#1072);
#13=STYLED_ITEM('',(#1090),#14);
#14=MANIFOLD_SOLID_BREP('Body1',#647);
#15=CYLINDRICAL_SURFACE('',#679,0.750000000000002);
#16=CYLINDRICAL_SURFACE('',#682,0.750000000000002);
#17=CYLINDRICAL_SURFACE('',#687,3.00000000000004);
#18=CYLINDRICAL_SURFACE('',#690,12.);
#19=CYLINDRICAL_SURFACE('',#699,2.99999999999989);
#20=CYLINDRICAL_SURFACE('',#707,2.99999999999999);
#21=CYLINDRICAL_SURFACE('',#710,2.99999999999999);
#22=CYLINDRICAL_SURFACE('',#711,1.75);
#23=CYLINDRICAL_SURFACE('',#712,1.75);
#24=CIRCLE('',#672,0.750000000000002);
#25=CIRCLE('',#673,0.750000000000002);
#26=CIRCLE('',#680,0.750000000000002);
#27=CIRCLE('',#683,0.750000000000002);
#28=CIRCLE('',#688,3.00000000000004);
#29=CIRCLE('',#689,3.00000000000004);
#30=CIRCLE('',#691,12.);
#31=CIRCLE('',#692,12.);
#32=CIRCLE('',#694,2.99999999999999);
#33=CIRCLE('',#695,2.99999999999989);
#34=CIRCLE('',#696,2.99999999999999);
#35=CIRCLE('',#697,1.75);
#36=CIRCLE('',#698,1.75);
#37=CIRCLE('',#700,2.99999999999989);
#38=CIRCLE('',#702,2.99999999999999);
#39=CIRCLE('',#703,2.99999999999999);
#40=CIRCLE('',#704,1.75);
#41=CIRCLE('',#705,1.75);
#42=FACE_BOUND('',#95,.T.);
#43=FACE_BOUND('',#96,.T.);
#44=FACE_BOUND('',#97,.T.);
#45=FACE_BOUND('',#98,.T.);
#46=FACE_BOUND('',#113,.T.);
#47=FACE_BOUND('',#114,.T.);
#48=FACE_BOUND('',#117,.T.);
#49=FACE_BOUND('',#118,.T.);
#50=FACE_OUTER_BOUND('',#84,.T.);
#51=FACE_OUTER_BOUND('',#85,.T.);
#52=FACE_OUTER_BOUND('',#86,.T.);
#53=FACE_OUTER_BOUND('',#87,.T.);
#54=FACE_OUTER_BOUND('',#88,.T.);
#55=FACE_OUTER_BOUND('',#89,.T.);
#56=FACE_OUTER_BOUND('',#90,.T.);
#57=FACE_OUTER_BOUND('',#91,.T.);
#58=FACE_OUTER_BOUND('',#92,.T.);
#59=FACE_OUTER_BOUND('',#93,.T.);
#60=FACE_OUTER_BOUND('',#94,.T.);
#61=FACE_OUTER_BOUND('',#99,.T.);
#62=FACE_OUTER_BOUND('',#100,.T.);
#63=FACE_OUTER_BOUND('',#101,.T.);
#64=FACE_OUTER_BOUND('',#102,.T.);
#65=FACE_OUTER_BOUND('',#103,.T.);
#66=FACE_OUTER_BOUND('',#104,.T.);
#67=FACE_OUTER_BOUND('',#105,.T.);
#68=FACE_OUTER_BOUND('',#106,.T.);
#69=FACE_OUTER_BOUND('',#107,.T.);
#70=FACE_OUTER_BOUND('',#108,.T.);
#71=FACE_OUTER_BOUND('',#109,.T.);
#72=FACE_OUTER_BOUND('',#110,.T.);
#73=FACE_OUTER_BOUND('',#111,.T.);
#74=FACE_OUTER_BOUND('',#112,.T.);
#75=FACE_OUTER_BOUND('',#115,.T.);
#76=FACE_OUTER_BOUND('',#116,.T.);
#77=FACE_OUTER_BOUND('',#119,.T.);
#78=FACE_OUTER_BOUND('',#120,.T.);
#79=FACE_OUTER_BOUND('',#121,.T.);
#80=FACE_OUTER_BOUND('',#122,.T.);
#81=FACE_OUTER_BOUND('',#123,.T.);
#82=FACE_OUTER_BOUND('',#124,.T.);
#83=FACE_OUTER_BOUND('',#125,.T.);
#84=EDGE_LOOP('',(#412,#413,#414,#415));
#85=EDGE_LOOP('',(#416,#417,#418,#419));
#86=EDGE_LOOP('',(#420,#421,#422,#423));
#87=EDGE_LOOP('',(#424,#425,#426,#427));
#88=EDGE_LOOP('',(#428,#429,#430,#431));
#89=EDGE_LOOP('',(#432,#433,#434,#435,#436));
#90=EDGE_LOOP('',(#437,#438,#439,#440));
#91=EDGE_LOOP('',(#441,#442,#443,#444));
#92=EDGE_LOOP('',(#445,#446,#447,#448,#449));
#93=EDGE_LOOP('',(#450,#451,#452,#453));
#94=EDGE_LOOP('',(#454,#455,#456,#457));
#95=EDGE_LOOP('',(#458,#459,#460,#461));
#96=EDGE_LOOP('',(#462,#463,#464,#465));
#97=EDGE_LOOP('',(#466));
#98=EDGE_LOOP('',(#467));
#99=EDGE_LOOP('',(#468,#469,#470,#471));
#100=EDGE_LOOP('',(#472,#473,#474,#475));
#101=EDGE_LOOP('',(#476,#477,#478,#479));
#102=EDGE_LOOP('',(#480,#481,#482,#483,#484,#485,#486,#487));
#103=EDGE_LOOP('',(#488,#489,#490,#491,#492,#493));
#104=EDGE_LOOP('',(#494,#495,#496,#497));
#105=EDGE_LOOP('',(#498));
#106=EDGE_LOOP('',(#499,#500,#501,#502));
#107=EDGE_LOOP('',(#503));
#108=EDGE_LOOP('',(#504,#505,#506,#507,#508,#509));
#109=EDGE_LOOP('',(#510,#511,#512,#513,#514,#515));
#110=EDGE_LOOP('',(#516,#517,#518,#519));
#111=EDGE_LOOP('',(#520,#521,#522,#523));
#112=EDGE_LOOP('',(#524,#525,#526,#527,#528,#529,#530,#531,#532,#533,#534,
#535,#536,#537));
#113=EDGE_LOOP('',(#538));
#114=EDGE_LOOP('',(#539));
#115=EDGE_LOOP('',(#540,#541,#542,#543));
#116=EDGE_LOOP('',(#544,#545,#546,#547,#548,#549,#550,#551,#552,#553,#554,
#555,#556,#557));
#117=EDGE_LOOP('',(#558));
#118=EDGE_LOOP('',(#559));
#119=EDGE_LOOP('',(#560,#561,#562,#563));
#120=EDGE_LOOP('',(#564,#565,#566,#567));
#121=EDGE_LOOP('',(#568,#569,#570,#571));
#122=EDGE_LOOP('',(#572,#573,#574,#575));
#123=EDGE_LOOP('',(#576,#577,#578,#579));
#124=EDGE_LOOP('',(#580,#581,#582,#583));
#125=EDGE_LOOP('',(#584,#585,#586,#587));
#126=LINE('',#893,#196);
#127=LINE('',#895,#197);
#128=LINE('',#897,#198);
#129=LINE('',#898,#199);
#130=LINE('',#901,#200);
#131=LINE('',#903,#201);
#132=LINE('',#904,#202);
#133=LINE('',#907,#203);
#134=LINE('',#909,#204);
#135=LINE('',#910,#205);
#136=LINE('',#912,#206);
#137=LINE('',#913,#207);
#138=LINE('',#918,#208);
#139=LINE('',#920,#209);
#140=LINE('',#922,#210);
#141=LINE('',#924,#211);
#142=LINE('',#925,#212);
#143=LINE('',#928,#213);
#144=LINE('',#930,#214);
#145=LINE('',#931,#215);
#146=LINE('',#934,#216);
#147=LINE('',#935,#217);
#148=LINE('',#938,#218);
#149=LINE('',#940,#219);
#150=LINE('',#941,#220);
#151=LINE('',#943,#221);
#152=LINE('',#944,#222);
#153=LINE('',#948,#223);
#154=LINE('',#950,#224);
#155=LINE('',#952,#225);
#156=LINE('',#953,#226);
#157=LINE('',#961,#227);
#158=LINE('',#962,#228);
#159=LINE('',#963,#229);
#160=LINE('',#966,#230);
#161=LINE('',#967,#231);
#162=LINE('',#970,#232);
#163=LINE('',#971,#233);
#164=LINE('',#974,#234);
#165=LINE('',#976,#235);
#166=LINE('',#978,#236);
#167=LINE('',#980,#237);
#168=LINE('',#981,#238);
#169=LINE('',#985,#239);
#170=LINE('',#987,#240);
#171=LINE('',#988,#241);
#172=LINE('',#990,#242);
#173=LINE('',#991,#243);
#174=LINE('',#994,#244);
#175=LINE('',#999,#245);
#176=LINE('',#1004,#246);
#177=LINE('',#1005,#247);
#178=LINE('',#1007,#248);
#179=LINE('',#1008,#249);
#180=LINE('',#1011,#250);
#181=LINE('',#1013,#251);
#182=LINE('',#1014,#252);
#183=LINE('',#1015,#253);
#184=LINE('',#1021,#254);
#185=LINE('',#1024,#255);
#186=LINE('',#1029,#256);
#187=LINE('',#1035,#257);
#188=LINE('',#1038,#258);
#189=LINE('',#1046,#259);
#190=LINE('',#1051,#260);
#191=LINE('',#1053,#261);
#192=LINE('',#1061,#262);
#193=LINE('',#1064,#263);
#194=LINE('',#1067,#264);
#195=LINE('',#1069,#265);
#196=VECTOR('',#717,10.);
#197=VECTOR('',#718,10.);
#198=VECTOR('',#719,10.);
#199=VECTOR('',#720,10.);
#200=VECTOR('',#723,10.);
#201=VECTOR('',#724,10.);
#202=VECTOR('',#725,10.);
#203=VECTOR('',#728,10.);
#204=VECTOR('',#729,10.);
#205=VECTOR('',#730,10.);
#206=VECTOR('',#733,10.);
#207=VECTOR('',#734,10.);
#208=VECTOR('',#739,10.);
#209=VECTOR('',#740,10.);
#210=VECTOR('',#741,10.);
#211=VECTOR('',#742,10.);
#212=VECTOR('',#743,10.);
#213=VECTOR('',#746,10.);
#214=VECTOR('',#747,10.);
#215=VECTOR('',#748,10.);
#216=VECTOR('',#751,10.);
#217=VECTOR('',#752,10.);
#218=VECTOR('',#755,10.);
#219=VECTOR('',#756,10.);
#220=VECTOR('',#757,10.);
#221=VECTOR('',#760,10.);
#222=VECTOR('',#761,10.);
#223=VECTOR('',#764,10.);
#224=VECTOR('',#765,10.);
#225=VECTOR('',#766,10.);
#226=VECTOR('',#767,10.);
#227=VECTOR('',#774,10.);
#228=VECTOR('',#775,10.);
#229=VECTOR('',#776,10.);
#230=VECTOR('',#779,10.);
#231=VECTOR('',#780,10.);
#232=VECTOR('',#783,10.);
#233=VECTOR('',#784,10.);
#234=VECTOR('',#787,10.);
#235=VECTOR('',#788,10.);
#236=VECTOR('',#789,10.);
#237=VECTOR('',#790,10.);
#238=VECTOR('',#791,10.);
#239=VECTOR('',#794,10.);
#240=VECTOR('',#795,10.);
#241=VECTOR('',#796,10.);
#242=VECTOR('',#797,10.);
#243=VECTOR('',#798,10.);
#244=VECTOR('',#801,0.750000000000002);
#245=VECTOR('',#808,0.750000000000002);
#246=VECTOR('',#815,10.);
#247=VECTOR('',#816,10.);
#248=VECTOR('',#817,10.);
#249=VECTOR('',#818,10.);
#250=VECTOR('',#821,10.);
#251=VECTOR('',#822,10.);
#252=VECTOR('',#823,10.);
#253=VECTOR('',#824,10.);
#254=VECTOR('',#829,10.);
#255=VECTOR('',#832,10.);
#256=VECTOR('',#837,10.);
#257=VECTOR('',#844,10.);
#258=VECTOR('',#847,10.);
#259=VECTOR('',#856,10.);
#260=VECTOR('',#863,10.);
#261=VECTOR('',#864,10.);
#262=VECTOR('',#875,10.);
#263=VECTOR('',#880,10.);
#264=VECTOR('',#885,1.75);
#265=VECTOR('',#888,1.75);
#266=VERTEX_POINT('',#891);
#267=VERTEX_POINT('',#892);
#268=VERTEX_POINT('',#894);
#269=VERTEX_POINT('',#896);
#270=VERTEX_POINT('',#900);
#271=VERTEX_POINT('',#902);
#272=VERTEX_POINT('',#906);
#273=VERTEX_POINT('',#908);
#274=VERTEX_POINT('',#916);
#275=VERTEX_POINT('',#917);
#276=VERTEX_POINT('',#919);
#277=VERTEX_POINT('',#921);
#278=VERTEX_POINT('',#923);
#279=VERTEX_POINT('',#927);
#280=VERTEX_POINT('',#929);
#281=VERTEX_POINT('',#933);
#282=VERTEX_POINT('',#937);
#283=VERTEX_POINT('',#939);
#284=VERTEX_POINT('',#946);
#285=VERTEX_POINT('',#947);
#286=VERTEX_POINT('',#949);
#287=VERTEX_POINT('',#951);
#288=VERTEX_POINT('',#954);
#289=VERTEX_POINT('',#956);
#290=VERTEX_POINT('',#959);
#291=VERTEX_POINT('',#960);
#292=VERTEX_POINT('',#965);
#293=VERTEX_POINT('',#969);
#294=VERTEX_POINT('',#973);
#295=VERTEX_POINT('',#975);
#296=VERTEX_POINT('',#977);
#297=VERTEX_POINT('',#979);
#298=VERTEX_POINT('',#983);
#299=VERTEX_POINT('',#984);
#300=VERTEX_POINT('',#986);
#301=VERTEX_POINT('',#989);
#302=VERTEX_POINT('',#993);
#303=VERTEX_POINT('',#998);
#304=VERTEX_POINT('',#1003);
#305=VERTEX_POINT('',#1006);
#306=VERTEX_POINT('',#1010);
#307=VERTEX_POINT('',#1012);
#308=VERTEX_POINT('',#1017);
#309=VERTEX_POINT('',#1018);
#310=VERTEX_POINT('',#1020);
#311=VERTEX_POINT('',#1022);
#312=VERTEX_POINT('',#1026);
#313=VERTEX_POINT('',#1028);
#314=VERTEX_POINT('',#1032);
#315=VERTEX_POINT('',#1034);
#316=VERTEX_POINT('',#1037);
#317=VERTEX_POINT('',#1040);
#318=VERTEX_POINT('',#1042);
#319=VERTEX_POINT('',#1045);
#320=VERTEX_POINT('',#1049);
#321=VERTEX_POINT('',#1052);
#322=VERTEX_POINT('',#1055);
#323=VERTEX_POINT('',#1057);
#324=EDGE_CURVE('',#266,#267,#126,.F.);
#325=EDGE_CURVE('',#266,#268,#127,.T.);
#326=EDGE_CURVE('',#268,#269,#128,.T.);
#327=EDGE_CURVE('',#267,#269,#129,.T.);
#328=EDGE_CURVE('',#267,#270,#130,.F.);
#329=EDGE_CURVE('',#269,#271,#131,.T.);
#330=EDGE_CURVE('',#270,#271,#132,.T.);
#331=EDGE_CURVE('',#270,#272,#133,.F.);
#332=EDGE_CURVE('',#271,#273,#134,.T.);
#333=EDGE_CURVE('',#272,#273,#135,.T.);
#334=EDGE_CURVE('',#272,#266,#136,.F.);
#335=EDGE_CURVE('',#273,#268,#137,.T.);
#336=EDGE_CURVE('',#274,#275,#138,.F.);
#337=EDGE_CURVE('',#274,#276,#139,.T.);
#338=EDGE_CURVE('',#277,#276,#140,.T.);
#339=EDGE_CURVE('',#277,#278,#141,.T.);
#340=EDGE_CURVE('',#275,#278,#142,.T.);
#341=EDGE_CURVE('',#275,#279,#143,.F.);
#342=EDGE_CURVE('',#278,#280,#144,.T.);
#343=EDGE_CURVE('',#279,#280,#145,.T.);
#344=EDGE_CURVE('',#281,#277,#146,.F.);
#345=EDGE_CURVE('',#280,#281,#147,.T.);
#346=EDGE_CURVE('',#279,#282,#148,.F.);
#347=EDGE_CURVE('',#283,#281,#149,.T.);
#348=EDGE_CURVE('',#282,#283,#150,.T.);
#349=EDGE_CURVE('',#282,#274,#151,.F.);
#350=EDGE_CURVE('',#276,#283,#152,.T.);
#351=EDGE_CURVE('',#284,#285,#153,.F.);
#352=EDGE_CURVE('',#286,#284,#154,.F.);
#353=EDGE_CURVE('',#287,#286,#155,.F.);
#354=EDGE_CURVE('',#285,#287,#156,.F.);
#355=EDGE_CURVE('',#288,#288,#24,.T.);
#356=EDGE_CURVE('',#289,#289,#25,.T.);
#357=EDGE_CURVE('',#290,#291,#157,.T.);
#358=EDGE_CURVE('',#290,#286,#158,.T.);
#359=EDGE_CURVE('',#291,#284,#159,.T.);
#360=EDGE_CURVE('',#292,#290,#160,.T.);
#361=EDGE_CURVE('',#292,#287,#161,.T.);
#362=EDGE_CURVE('',#293,#292,#162,.T.);
#363=EDGE_CURVE('',#285,#293,#163,.T.);
#364=EDGE_CURVE('',#294,#293,#164,.T.);
#365=EDGE_CURVE('',#294,#295,#165,.T.);
#366=EDGE_CURVE('',#296,#295,#166,.F.);
#367=EDGE_CURVE('',#297,#296,#167,.F.);
#368=EDGE_CURVE('',#291,#297,#168,.T.);
#369=EDGE_CURVE('',#298,#299,#169,.T.);
#370=EDGE_CURVE('',#300,#298,#170,.F.);
#371=EDGE_CURVE('',#300,#281,#171,.F.);
#372=EDGE_CURVE('',#277,#301,#172,.F.);
#373=EDGE_CURVE('',#301,#299,#173,.T.);
#374=EDGE_CURVE('',#289,#302,#174,.T.);
#375=EDGE_CURVE('',#302,#302,#26,.T.);
#376=EDGE_CURVE('',#288,#303,#175,.T.);
#377=EDGE_CURVE('',#303,#303,#27,.T.);
#378=EDGE_CURVE('',#304,#297,#176,.F.);
#379=EDGE_CURVE('',#299,#296,#177,.T.);
#380=EDGE_CURVE('',#305,#301,#178,.T.);
#381=EDGE_CURVE('',#304,#305,#179,.T.);
#382=EDGE_CURVE('',#294,#306,#180,.F.);
#383=EDGE_CURVE('',#306,#307,#181,.T.);
#384=EDGE_CURVE('',#300,#307,#182,.T.);
#385=EDGE_CURVE('',#295,#298,#183,.T.);
#386=EDGE_CURVE('',#308,#309,#28,.T.);
#387=EDGE_CURVE('',#309,#310,#184,.T.);
#388=EDGE_CURVE('',#310,#311,#29,.T.);
#389=EDGE_CURVE('',#311,#308,#185,.T.);
#390=EDGE_CURVE('',#312,#311,#30,.T.);
#391=EDGE_CURVE('',#313,#312,#186,.T.);
#392=EDGE_CURVE('',#313,#308,#31,.F.);
#393=EDGE_CURVE('',#307,#314,#32,.T.);
#394=EDGE_CURVE('',#314,#315,#187,.T.);
#395=EDGE_CURVE('',#312,#315,#33,.T.);
#396=EDGE_CURVE('',#316,#310,#188,.T.);
#397=EDGE_CURVE('',#316,#305,#34,.T.);
#398=EDGE_CURVE('',#317,#317,#35,.T.);
#399=EDGE_CURVE('',#318,#318,#36,.T.);
#400=EDGE_CURVE('',#315,#319,#189,.T.);
#401=EDGE_CURVE('',#319,#313,#37,.T.);
#402=EDGE_CURVE('',#320,#304,#38,.F.);
#403=EDGE_CURVE('',#309,#320,#190,.F.);
#404=EDGE_CURVE('',#321,#319,#191,.F.);
#405=EDGE_CURVE('',#306,#321,#39,.F.);
#406=EDGE_CURVE('',#322,#322,#40,.T.);
#407=EDGE_CURVE('',#323,#323,#41,.T.);
#408=EDGE_CURVE('',#321,#314,#192,.T.);
#409=EDGE_CURVE('',#320,#316,#193,.T.);
#410=EDGE_CURVE('',#317,#323,#194,.T.);
#411=EDGE_CURVE('',#318,#322,#195,.T.);
#412=ORIENTED_EDGE('',*,*,#324,.F.);
#413=ORIENTED_EDGE('',*,*,#325,.T.);
#414=ORIENTED_EDGE('',*,*,#326,.T.);
#415=ORIENTED_EDGE('',*,*,#327,.F.);
#416=ORIENTED_EDGE('',*,*,#328,.F.);
#417=ORIENTED_EDGE('',*,*,#327,.T.);
#418=ORIENTED_EDGE('',*,*,#329,.T.);
#419=ORIENTED_EDGE('',*,*,#330,.F.);
#420=ORIENTED_EDGE('',*,*,#331,.F.);
#421=ORIENTED_EDGE('',*,*,#330,.T.);
#422=ORIENTED_EDGE('',*,*,#332,.T.);
#423=ORIENTED_EDGE('',*,*,#333,.F.);
#424=ORIENTED_EDGE('',*,*,#334,.F.);
#425=ORIENTED_EDGE('',*,*,#333,.T.);
#426=ORIENTED_EDGE('',*,*,#335,.T.);
#427=ORIENTED_EDGE('',*,*,#325,.F.);
#428=ORIENTED_EDGE('',*,*,#335,.F.);
#429=ORIENTED_EDGE('',*,*,#332,.F.);
#430=ORIENTED_EDGE('',*,*,#329,.F.);
#431=ORIENTED_EDGE('',*,*,#326,.F.);
#432=ORIENTED_EDGE('',*,*,#336,.F.);
#433=ORIENTED_EDGE('',*,*,#337,.T.);
#434=ORIENTED_EDGE('',*,*,#338,.F.);
#435=ORIENTED_EDGE('',*,*,#339,.T.);
#436=ORIENTED_EDGE('',*,*,#340,.F.);
#437=ORIENTED_EDGE('',*,*,#341,.F.);
#438=ORIENTED_EDGE('',*,*,#340,.T.);
#439=ORIENTED_EDGE('',*,*,#342,.T.);
#440=ORIENTED_EDGE('',*,*,#343,.F.);
#441=ORIENTED_EDGE('',*,*,#344,.F.);
#442=ORIENTED_EDGE('',*,*,#345,.F.);
#443=ORIENTED_EDGE('',*,*,#342,.F.);
#444=ORIENTED_EDGE('',*,*,#339,.F.);
#445=ORIENTED_EDGE('',*,*,#346,.F.);
#446=ORIENTED_EDGE('',*,*,#343,.T.);
#447=ORIENTED_EDGE('',*,*,#345,.T.);
#448=ORIENTED_EDGE('',*,*,#347,.F.);
#449=ORIENTED_EDGE('',*,*,#348,.F.);
#450=ORIENTED_EDGE('',*,*,#349,.F.);
#451=ORIENTED_EDGE('',*,*,#348,.T.);
#452=ORIENTED_EDGE('',*,*,#350,.F.);
#453=ORIENTED_EDGE('',*,*,#337,.F.);
#454=ORIENTED_EDGE('',*,*,#351,.F.);
#455=ORIENTED_EDGE('',*,*,#352,.F.);
#456=ORIENTED_EDGE('',*,*,#353,.F.);
#457=ORIENTED_EDGE('',*,*,#354,.F.);
#458=ORIENTED_EDGE('',*,*,#331,.T.);
#459=ORIENTED_EDGE('',*,*,#334,.T.);
#460=ORIENTED_EDGE('',*,*,#324,.T.);
#461=ORIENTED_EDGE('',*,*,#328,.T.);
#462=ORIENTED_EDGE('',*,*,#346,.T.);
#463=ORIENTED_EDGE('',*,*,#349,.T.);
#464=ORIENTED_EDGE('',*,*,#336,.T.);
#465=ORIENTED_EDGE('',*,*,#341,.T.);
#466=ORIENTED_EDGE('',*,*,#355,.F.);
#467=ORIENTED_EDGE('',*,*,#356,.F.);
#468=ORIENTED_EDGE('',*,*,#357,.F.);
#469=ORIENTED_EDGE('',*,*,#358,.T.);
#470=ORIENTED_EDGE('',*,*,#352,.T.);
#471=ORIENTED_EDGE('',*,*,#359,.F.);
#472=ORIENTED_EDGE('',*,*,#360,.F.);
#473=ORIENTED_EDGE('',*,*,#361,.T.);
#474=ORIENTED_EDGE('',*,*,#353,.T.);
#475=ORIENTED_EDGE('',*,*,#358,.F.);
#476=ORIENTED_EDGE('',*,*,#362,.F.);
#477=ORIENTED_EDGE('',*,*,#363,.F.);
#478=ORIENTED_EDGE('',*,*,#354,.T.);
#479=ORIENTED_EDGE('',*,*,#361,.F.);
#480=ORIENTED_EDGE('',*,*,#359,.T.);
#481=ORIENTED_EDGE('',*,*,#351,.T.);
#482=ORIENTED_EDGE('',*,*,#363,.T.);
#483=ORIENTED_EDGE('',*,*,#364,.F.);
#484=ORIENTED_EDGE('',*,*,#365,.T.);
#485=ORIENTED_EDGE('',*,*,#366,.F.);
#486=ORIENTED_EDGE('',*,*,#367,.F.);
#487=ORIENTED_EDGE('',*,*,#368,.F.);
#488=ORIENTED_EDGE('',*,*,#369,.F.);
#489=ORIENTED_EDGE('',*,*,#370,.F.);
#490=ORIENTED_EDGE('',*,*,#371,.T.);
#491=ORIENTED_EDGE('',*,*,#344,.T.);
#492=ORIENTED_EDGE('',*,*,#372,.T.);
#493=ORIENTED_EDGE('',*,*,#373,.T.);
#494=ORIENTED_EDGE('',*,*,#356,.T.);
#495=ORIENTED_EDGE('',*,*,#374,.T.);
#496=ORIENTED_EDGE('',*,*,#375,.T.);
#497=ORIENTED_EDGE('',*,*,#374,.F.);
#498=ORIENTED_EDGE('',*,*,#375,.F.);
#499=ORIENTED_EDGE('',*,*,#355,.T.);
#500=ORIENTED_EDGE('',*,*,#376,.T.);
#501=ORIENTED_EDGE('',*,*,#377,.T.);
#502=ORIENTED_EDGE('',*,*,#376,.F.);
#503=ORIENTED_EDGE('',*,*,#377,.F.);
#504=ORIENTED_EDGE('',*,*,#378,.T.);
#505=ORIENTED_EDGE('',*,*,#367,.T.);
#506=ORIENTED_EDGE('',*,*,#379,.F.);
#507=ORIENTED_EDGE('',*,*,#373,.F.);
#508=ORIENTED_EDGE('',*,*,#380,.F.);
#509=ORIENTED_EDGE('',*,*,#381,.F.);
#510=ORIENTED_EDGE('',*,*,#382,.T.);
#511=ORIENTED_EDGE('',*,*,#383,.T.);
#512=ORIENTED_EDGE('',*,*,#384,.F.);
#513=ORIENTED_EDGE('',*,*,#370,.T.);
#514=ORIENTED_EDGE('',*,*,#385,.F.);
#515=ORIENTED_EDGE('',*,*,#365,.F.);
#516=ORIENTED_EDGE('',*,*,#386,.T.);
#517=ORIENTED_EDGE('',*,*,#387,.T.);
#518=ORIENTED_EDGE('',*,*,#388,.T.);
#519=ORIENTED_EDGE('',*,*,#389,.T.);
#520=ORIENTED_EDGE('',*,*,#389,.F.);
#521=ORIENTED_EDGE('',*,*,#390,.F.);
#522=ORIENTED_EDGE('',*,*,#391,.F.);
#523=ORIENTED_EDGE('',*,*,#392,.T.);
#524=ORIENTED_EDGE('',*,*,#347,.T.);
#525=ORIENTED_EDGE('',*,*,#371,.F.);
#526=ORIENTED_EDGE('',*,*,#384,.T.);
#527=ORIENTED_EDGE('',*,*,#393,.T.);
#528=ORIENTED_EDGE('',*,*,#394,.T.);
#529=ORIENTED_EDGE('',*,*,#395,.F.);
#530=ORIENTED_EDGE('',*,*,#390,.T.);
#531=ORIENTED_EDGE('',*,*,#388,.F.);
#532=ORIENTED_EDGE('',*,*,#396,.F.);
#533=ORIENTED_EDGE('',*,*,#397,.T.);
#534=ORIENTED_EDGE('',*,*,#380,.T.);
#535=ORIENTED_EDGE('',*,*,#372,.F.);
#536=ORIENTED_EDGE('',*,*,#338,.T.);
#537=ORIENTED_EDGE('',*,*,#350,.T.);
#538=ORIENTED_EDGE('',*,*,#398,.T.);
#539=ORIENTED_EDGE('',*,*,#399,.T.);
#540=ORIENTED_EDGE('',*,*,#395,.T.);
#541=ORIENTED_EDGE('',*,*,#400,.T.);
#542=ORIENTED_EDGE('',*,*,#401,.T.);
#543=ORIENTED_EDGE('',*,*,#391,.T.);
#544=ORIENTED_EDGE('',*,*,#357,.T.);
#545=ORIENTED_EDGE('',*,*,#368,.T.);
#546=ORIENTED_EDGE('',*,*,#378,.F.);
#547=ORIENTED_EDGE('',*,*,#402,.F.);
#548=ORIENTED_EDGE('',*,*,#403,.F.);
#549=ORIENTED_EDGE('',*,*,#386,.F.);
#550=ORIENTED_EDGE('',*,*,#392,.F.);
#551=ORIENTED_EDGE('',*,*,#401,.F.);
#552=ORIENTED_EDGE('',*,*,#404,.F.);
#553=ORIENTED_EDGE('',*,*,#405,.F.);
#554=ORIENTED_EDGE('',*,*,#382,.F.);
#555=ORIENTED_EDGE('',*,*,#364,.T.);
#556=ORIENTED_EDGE('',*,*,#362,.T.);
#557=ORIENTED_EDGE('',*,*,#360,.T.);
#558=ORIENTED_EDGE('',*,*,#406,.F.);
#559=ORIENTED_EDGE('',*,*,#407,.F.);
#560=ORIENTED_EDGE('',*,*,#366,.T.);
#561=ORIENTED_EDGE('',*,*,#385,.T.);
#562=ORIENTED_EDGE('',*,*,#369,.T.);
#563=ORIENTED_EDGE('',*,*,#379,.T.);
#564=ORIENTED_EDGE('',*,*,#405,.T.);
#565=ORIENTED_EDGE('',*,*,#408,.T.);
#566=ORIENTED_EDGE('',*,*,#393,.F.);
#567=ORIENTED_EDGE('',*,*,#383,.F.);
#568=ORIENTED_EDGE('',*,*,#400,.F.);
#569=ORIENTED_EDGE('',*,*,#394,.F.);
#570=ORIENTED_EDGE('',*,*,#408,.F.);
#571=ORIENTED_EDGE('',*,*,#404,.T.);
#572=ORIENTED_EDGE('',*,*,#387,.F.);
#573=ORIENTED_EDGE('',*,*,#403,.T.);
#574=ORIENTED_EDGE('',*,*,#409,.T.);
#575=ORIENTED_EDGE('',*,*,#396,.T.);
#576=ORIENTED_EDGE('',*,*,#402,.T.);
#577=ORIENTED_EDGE('',*,*,#381,.T.);
#578=ORIENTED_EDGE('',*,*,#397,.F.);
#579=ORIENTED_EDGE('',*,*,#409,.F.);
#580=ORIENTED_EDGE('',*,*,#398,.F.);
#581=ORIENTED_EDGE('',*,*,#410,.T.);
#582=ORIENTED_EDGE('',*,*,#407,.T.);
#583=ORIENTED_EDGE('',*,*,#410,.F.);
#584=ORIENTED_EDGE('',*,*,#399,.F.);
#585=ORIENTED_EDGE('',*,*,#411,.T.);
#586=ORIENTED_EDGE('',*,*,#406,.T.);
#587=ORIENTED_EDGE('',*,*,#411,.F.);
#588=PLANE('',#661);
#589=PLANE('',#662);
#590=PLANE('',#663);
#591=PLANE('',#664);
#592=PLANE('',#665);
#593=PLANE('',#666);
#594=PLANE('',#667);
#595=PLANE('',#668);
#596=PLANE('',#669);
#597=PLANE('',#670);
#598=PLANE('',#671);
#599=PLANE('',#674);
#600=PLANE('',#675);
#601=PLANE('',#676);
#602=PLANE('',#677);
#603=PLANE('',#678);
#604=PLANE('',#681);
#605=PLANE('',#684);
#606=PLANE('',#685);
#607=PLANE('',#686);
#608=PLANE('',#693);
#609=PLANE('',#701);
#610=PLANE('',#706);
#611=PLANE('',#708);
#612=PLANE('',#709);
#613=ADVANCED_FACE('',(#50),#588,.F.);
#614=ADVANCED_FACE('',(#51),#589,.F.);
#615=ADVANCED_FACE('',(#52),#590,.F.);
#616=ADVANCED_FACE('',(#53),#591,.F.);
#617=ADVANCED_FACE('',(#54),#592,.F.);
#618=ADVANCED_FACE('',(#55),#593,.F.);
#619=ADVANCED_FACE('',(#56),#594,.F.);
#620=ADVANCED_FACE('',(#57),#595,.F.);
#621=ADVANCED_FACE('',(#58),#596,.F.);
#622=ADVANCED_FACE('',(#59),#597,.F.);
#623=ADVANCED_FACE('',(#60,#42,#43,#44,#45),#598,.T.);
#624=ADVANCED_FACE('',(#61),#599,.F.);
#625=ADVANCED_FACE('',(#62),#600,.F.);
#626=ADVANCED_FACE('',(#63),#601,.F.);
#627=ADVANCED_FACE('',(#64),#602,.T.);
#628=ADVANCED_FACE('',(#65),#603,.T.);
#629=ADVANCED_FACE('',(#66),#15,.F.);
#630=ADVANCED_FACE('',(#67),#604,.T.);
#631=ADVANCED_FACE('',(#68),#16,.F.);
#632=ADVANCED_FACE('',(#69),#605,.T.);
#633=ADVANCED_FACE('',(#70),#606,.T.);
#634=ADVANCED_FACE('',(#71),#607,.T.);
#635=ADVANCED_FACE('',(#72),#17,.T.);
#636=ADVANCED_FACE('',(#73),#18,.F.);
#637=ADVANCED_FACE('',(#74,#46,#47),#608,.T.);
#638=ADVANCED_FACE('',(#75),#19,.T.);
#639=ADVANCED_FACE('',(#76,#48,#49),#609,.T.);
#640=ADVANCED_FACE('',(#77),#610,.T.);
#641=ADVANCED_FACE('',(#78),#20,.T.);
#642=ADVANCED_FACE('',(#79),#611,.T.);
#643=ADVANCED_FACE('',(#80),#612,.T.);
#644=ADVANCED_FACE('',(#81),#21,.T.);
#645=ADVANCED_FACE('',(#82),#22,.F.);
#646=ADVANCED_FACE('',(#83),#23,.F.);
#647=CLOSED_SHELL('',(#613,#614,#615,#616,#617,#618,#619,#620,#621,#622,
#623,#624,#625,#626,#627,#628,#629,#630,#631,#632,#633,#634,#635,#636,#637,
#638,#639,#640,#641,#642,#643,#644,#645,#646));
#648=DERIVED_UNIT_ELEMENT(#650,1.);
#649=DERIVED_UNIT_ELEMENT(#1075,-3.);
#650=(
MASS_UNIT()
NAMED_UNIT(*)
SI_UNIT(.KILO.,.GRAM.)
);
#651=DERIVED_UNIT((#648,#649));
#652=MEASURE_REPRESENTATION_ITEM('density measure',
POSITIVE_RATIO_MEASURE(7850.),#651);
#653=PROPERTY_DEFINITION_REPRESENTATION(#658,#655);
#654=PROPERTY_DEFINITION_REPRESENTATION(#659,#656);
#655=REPRESENTATION('material name',(#657),#1072);
#656=REPRESENTATION('density',(#652),#1072);
#657=DESCRIPTIVE_REPRESENTATION_ITEM('Steel','Steel');
#658=PROPERTY_DEFINITION('material property','material name',#1082);
#659=PROPERTY_DEFINITION('material property','density of part',#1082);
#660=AXIS2_PLACEMENT_3D('',#889,#713,#714);
#661=AXIS2_PLACEMENT_3D('',#890,#715,#716);
#662=AXIS2_PLACEMENT_3D('',#899,#721,#722);
#663=AXIS2_PLACEMENT_3D('',#905,#726,#727);
#664=AXIS2_PLACEMENT_3D('',#911,#731,#732);
#665=AXIS2_PLACEMENT_3D('',#914,#735,#736);
#666=AXIS2_PLACEMENT_3D('',#915,#737,#738);
#667=AXIS2_PLACEMENT_3D('',#926,#744,#745);
#668=AXIS2_PLACEMENT_3D('',#932,#749,#750);
#669=AXIS2_PLACEMENT_3D('',#936,#753,#754);
#670=AXIS2_PLACEMENT_3D('',#942,#758,#759);
#671=AXIS2_PLACEMENT_3D('',#945,#762,#763);
#672=AXIS2_PLACEMENT_3D('',#955,#768,#769);
#673=AXIS2_PLACEMENT_3D('',#957,#770,#771);
#674=AXIS2_PLACEMENT_3D('',#958,#772,#773);
#675=AXIS2_PLACEMENT_3D('',#964,#777,#778);
#676=AXIS2_PLACEMENT_3D('',#968,#781,#782);
#677=AXIS2_PLACEMENT_3D('',#972,#785,#786);
#678=AXIS2_PLACEMENT_3D('',#982,#792,#793);
#679=AXIS2_PLACEMENT_3D('',#992,#799,#800);
#680=AXIS2_PLACEMENT_3D('',#995,#802,#803);
#681=AXIS2_PLACEMENT_3D('',#996,#804,#805);
#682=AXIS2_PLACEMENT_3D('',#997,#806,#807);
#683=AXIS2_PLACEMENT_3D('',#1000,#809,#810);
#684=AXIS2_PLACEMENT_3D('',#1001,#811,#812);
#685=AXIS2_PLACEMENT_3D('',#1002,#813,#814);
#686=AXIS2_PLACEMENT_3D('',#1009,#819,#820);
#687=AXIS2_PLACEMENT_3D('',#1016,#825,#826);
#688=AXIS2_PLACEMENT_3D('',#1019,#827,#828);
#689=AXIS2_PLACEMENT_3D('',#1023,#830,#831);
#690=AXIS2_PLACEMENT_3D('',#1025,#833,#834);
#691=AXIS2_PLACEMENT_3D('',#1027,#835,#836);
#692=AXIS2_PLACEMENT_3D('',#1030,#838,#839);
#693=AXIS2_PLACEMENT_3D('',#1031,#840,#841);
#694=AXIS2_PLACEMENT_3D('',#1033,#842,#843);
#695=AXIS2_PLACEMENT_3D('',#1036,#845,#846);
#696=AXIS2_PLACEMENT_3D('',#1039,#848,#849);
#697=AXIS2_PLACEMENT_3D('',#1041,#850,#851);
#698=AXIS2_PLACEMENT_3D('',#1043,#852,#853);
#699=AXIS2_PLACEMENT_3D('',#1044,#854,#855);
#700=AXIS2_PLACEMENT_3D('',#1047,#857,#858);
#701=AXIS2_PLACEMENT_3D('',#1048,#859,#860);
#702=AXIS2_PLACEMENT_3D('',#1050,#861,#862);
#703=AXIS2_PLACEMENT_3D('',#1054,#865,#866);
#704=AXIS2_PLACEMENT_3D('',#1056,#867,#868);
#705=AXIS2_PLACEMENT_3D('',#1058,#869,#870);
#706=AXIS2_PLACEMENT_3D('',#1059,#871,#872);
#707=AXIS2_PLACEMENT_3D('',#1060,#873,#874);
#708=AXIS2_PLACEMENT_3D('',#1062,#876,#877);
#709=AXIS2_PLACEMENT_3D('',#1063,#878,#879);
#710=AXIS2_PLACEMENT_3D('',#1065,#881,#882);
#711=AXIS2_PLACEMENT_3D('',#1066,#883,#884);
#712=AXIS2_PLACEMENT_3D('',#1068,#886,#887);
#713=DIRECTION('axis',(0.,0.,1.));
#714=DIRECTION('refdir',(1.,0.,0.));
#715=DIRECTION('center_axis',(-1.,-2.22044604925031E-14,-1.78450113089264E-14));
#716=DIRECTION('ref_axis',(2.22044604925031E-14,-1.,4.81435891292431E-16));
#717=DIRECTION('',(-2.22044604925031E-14,1.,-4.81435891292431E-16));
#718=DIRECTION('',(-1.78450113089264E-14,0.,1.));
#719=DIRECTION('',(2.22044604925031E-14,-1.,4.81435891292431E-16));
#720=DIRECTION('',(-1.78450113089264E-14,0.,1.));
#721=DIRECTION('center_axis',(2.22044604925031E-14,-1.,3.96238848597326E-28));
#722=DIRECTION('ref_axis',(1.,2.22044604925031E-14,1.79753900969324E-14));
#723=DIRECTION('',(-1.,-2.22044604925031E-14,-1.79753900969324E-14));
#724=DIRECTION('',(1.,2.22044604925031E-14,1.79753900969324E-14));
#725=DIRECTION('',(-1.78450113089264E-14,0.,1.));
#726=DIRECTION('center_axis',(1.,2.22044604925031E-14,1.78450113089264E-14));
#727=DIRECTION('ref_axis',(-2.22044604925031E-14,1.,-4.81435891292431E-16));
#728=DIRECTION('',(2.22044604925031E-14,-1.,4.81435891292431E-16));
#729=DIRECTION('',(-2.22044604925031E-14,1.,-4.81435891292431E-16));
#730=DIRECTION('',(-1.78450113089264E-14,0.,1.));
#731=DIRECTION('center_axis',(-2.22044604925031E-14,1.,-3.96238848597326E-28));
#732=DIRECTION('ref_axis',(-1.,-2.22044604925031E-14,-1.79753900969324E-14));
#733=DIRECTION('',(1.,2.22044604925031E-14,1.79753900969324E-14));
#734=DIRECTION('',(-1.,-2.22044604925031E-14,-1.79753900969324E-14));
#735=DIRECTION('center_axis',(-1.78450113089264E-14,0.,1.));
#736=DIRECTION('ref_axis',(1.,0.,1.78450113089264E-14));
#737=DIRECTION('center_axis',(-1.,-2.22044604925031E-14,-1.78450113089264E-14));
#738=DIRECTION('ref_axis',(2.22044604925031E-14,-1.,4.81435891292431E-16));
#739=DIRECTION('',(-2.22044604925031E-14,1.,-4.81435891292431E-16));
#740=DIRECTION('',(-1.78450113089264E-14,0.,1.));
#741=DIRECTION('',(-2.22044604925031E-14,1.,0.));
#742=DIRECTION('',(2.22044604925031E-14,-1.,4.81435891292431E-16));
#743=DIRECTION('',(-1.78450113089264E-14,0.,1.));
#744=DIRECTION('center_axis',(2.22044604925031E-14,-1.,3.96238848597326E-28));
#745=DIRECTION('ref_axis',(1.,2.22044604925031E-14,1.79753900969324E-14));
#746=DIRECTION('',(-1.,-2.22044604925031E-14,-1.79753900969324E-14));
#747=DIRECTION('',(1.,2.22044604925031E-14,1.79753900969324E-14));
#748=DIRECTION('',(-1.78450113089264E-14,0.,1.));
#749=DIRECTION('center_axis',(-1.78450113089264E-14,0.,1.));
#750=DIRECTION('ref_axis',(1.,0.,1.78450113089264E-14));
#751=DIRECTION('',(1.,0.,0.));
#752=DIRECTION('',(-2.22044604925031E-14,1.,-4.81435891292431E-16));
#753=DIRECTION('center_axis',(1.,2.22044604925031E-14,1.78450113089264E-14));
#754=DIRECTION('ref_axis',(-2.22044604925031E-14,1.,-4.81435891292431E-16));
#755=DIRECTION('',(2.22044604925031E-14,-1.,4.81435891292431E-16));
#756=DIRECTION('',(2.22044604925031E-14,-1.,0.));
#757=DIRECTION('',(-1.78450113089264E-14,0.,1.));
#758=DIRECTION('center_axis',(-2.22044604925031E-14,1.,-3.96238848597326E-28));
#759=DIRECTION('ref_axis',(-1.,-2.22044604925031E-14,-1.79753900969324E-14));
#760=DIRECTION('',(1.,2.22044604925031E-14,1.79753900969324E-14));
#761=DIRECTION('',(1.,2.22044604925031E-14,0.));
#762=DIRECTION('center_axis',(1.79753900969324E-14,-4.81435891292032E-16,
-1.));
#763=DIRECTION('ref_axis',(1.,2.22044604925031E-14,1.79753900969324E-14));
#764=DIRECTION('',(-1.,0.,-1.79753900969324E-14));
#765=DIRECTION('',(-2.22044604925031E-14,1.,-4.81435891292431E-16));
#766=DIRECTION('',(1.,2.22044604925031E-14,1.79753900969324E-14));
#767=DIRECTION('',(2.22044604925031E-14,-1.,4.81435891292431E-16));
#768=DIRECTION('center_axis',(1.79753900969324E-14,-4.81435891292032E-16,
-1.));
#769=DIRECTION('ref_axis',(1.,2.22044604925031E-14,1.78456584227471E-14));
#770=DIRECTION('center_axis',(1.79753900969324E-14,-4.81435891292032E-16,
-1.));
#771=DIRECTION('ref_axis',(1.,2.22044604925031E-14,1.78456584227471E-14));
#772=DIRECTION('center_axis',(-1.,-2.22044604925031E-14,-1.74944234183358E-14));
#773=DIRECTION('ref_axis',(2.22044604925031E-14,-1.,4.81435891292431E-16));
#774=DIRECTION('',(2.22044604925031E-14,-1.,0.));
#775=DIRECTION('',(-1.74944234183358E-14,0.,1.));
#776=DIRECTION('',(-1.74944234183358E-14,0.,1.));
#777=DIRECTION('center_axis',(-2.22044604925031E-14,1.,-3.88454233631558E-28));
#778=DIRECTION('ref_axis',(-1.,-2.22044604925031E-14,-1.79753900969324E-14));
#779=DIRECTION('',(-1.,-2.22044604925031E-14,0.));
#780=DIRECTION('',(-1.74944234183358E-14,0.,1.));
#781=DIRECTION('center_axis',(1.,2.22044604925031E-14,1.74944234183358E-14));
#782=DIRECTION('ref_axis',(-2.22044604925031E-14,1.,-4.81435891292431E-16));
#783=DIRECTION('',(-2.22044604925031E-14,1.,0.));
#784=DIRECTION('',(1.74944234183358E-14,0.,-1.));
#785=DIRECTION('center_axis',(0.,-1.,0.));
#786=DIRECTION('ref_axis',(0.,0.,1.));
#787=DIRECTION('',(-1.,0.,0.));
#788=DIRECTION('',(0.,0.,1.));
#789=DIRECTION('',(-1.,0.,0.));
#790=DIRECTION('',(0.,0.,-1.));
#791=DIRECTION('',(-1.,0.,0.));
#792=DIRECTION('center_axis',(0.,1.,0.));
#793=DIRECTION('ref_axis',(0.,0.,-1.));
#794=DIRECTION('',(-1.,0.,0.));
#795=DIRECTION('',(0.,0.,-1.));
#796=DIRECTION('',(1.,0.,0.));
#797=DIRECTION('',(1.,0.,0.));
#798=DIRECTION('',(0.,0.,1.));
#799=DIRECTION('center_axis',(-1.78456584227471E-14,0.,1.));
#800=DIRECTION('ref_axis',(1.,2.22044604925031E-14,1.78456584227471E-14));
#801=DIRECTION('',(-1.78456584227471E-14,0.,1.));
#802=DIRECTION('center_axis',(-1.79753900969324E-14,4.81435891292032E-16,
1.));
#803=DIRECTION('ref_axis',(1.,2.22044604925031E-14,1.79753900969324E-14));
#804=DIRECTION('center_axis',(1.79753900969324E-14,-4.81435891292032E-16,
-1.));
#805=DIRECTION('ref_axis',(1.,2.22044604925031E-14,1.79753900969324E-14));
#806=DIRECTION('center_axis',(-1.78456584227471E-14,0.,1.));
#807=DIRECTION('ref_axis',(1.,2.22044604925031E-14,1.78456584227471E-14));
#808=DIRECTION('',(-1.78456584227471E-14,0.,1.));
#809=DIRECTION('center_axis',(-1.79753900969324E-14,4.81435891292032E-16,
1.));
#810=DIRECTION('ref_axis',(1.,2.22044604925031E-14,1.79753900969324E-14));
#811=DIRECTION('center_axis',(1.79753900969324E-14,-4.81435891292032E-16,
-1.));
#812=DIRECTION('ref_axis',(1.,2.22044604925031E-14,1.79753900969324E-14));
#813=DIRECTION('center_axis',(-1.,0.,0.));
#814=DIRECTION('ref_axis',(0.,1.,0.));
#815=DIRECTION('',(0.,1.,0.));
#816=DIRECTION('',(0.,-1.,0.));
#817=DIRECTION('',(0.,-1.,0.));
#818=DIRECTION('',(0.,0.,1.));
#819=DIRECTION('center_axis',(1.,0.,0.));
#820=DIRECTION('ref_axis',(0.,-1.,0.));
#821=DIRECTION('',(0.,-1.,0.));
#822=DIRECTION('',(0.,0.,1.));
#823=DIRECTION('',(0.,1.,0.));
#824=DIRECTION('',(0.,1.,0.));
#825=DIRECTION('center_axis',(0.,0.,-1.));
#826=DIRECTION('ref_axis',(0.204083341603752,0.978953517629845,0.));
#827=DIRECTION('center_axis',(0.,0.,1.));
#828=DIRECTION('ref_axis',(0.204083341603752,0.978953517629845,0.));
#829=DIRECTION('',(0.,0.,1.));
#830=DIRECTION('center_axis',(0.,0.,-1.));
#831=DIRECTION('ref_axis',(0.204083341603752,0.978953517629845,0.));
#832=DIRECTION('',(0.,0.,-1.));
#833=DIRECTION('center_axis',(0.,0.,-1.));
#834=DIRECTION('ref_axis',(1.,0.,0.));
#835=DIRECTION('center_axis',(0.,0.,-1.));
#836=DIRECTION('ref_axis',(1.,0.,0.));
#837=DIRECTION('',(0.,0.,1.));
#838=DIRECTION('center_axis',(0.,0.,1.));
#839=DIRECTION('ref_axis',(1.,0.,0.));
#840=DIRECTION('center_axis',(0.,0.,1.));
#841=DIRECTION('ref_axis',(-1.,0.,0.));
#842=DIRECTION('center_axis',(0.,0.,1.));
#843=DIRECTION('ref_axis',(1.,-4.73695157173402E-15,0.));
#844=DIRECTION('',(-1.,0.,0.));
#845=DIRECTION('center_axis',(0.,0.,-1.));
#846=DIRECTION('ref_axis',(-0.204083341603751,0.978953517629845,0.));
#847=DIRECTION('',(1.,0.,0.));
#848=DIRECTION('center_axis',(-8.93438494436307E-17,8.93438494436305E-17,
1.));
#849=DIRECTION('ref_axis',(2.36847578586701E-15,1.,-8.93438494436303E-17));
#850=DIRECTION('center_axis',(0.,0.,-1.));
#851=DIRECTION('ref_axis',(1.,0.,0.));
#852=DIRECTION('center_axis',(0.,0.,-1.));
#853=DIRECTION('ref_axis',(1.,0.,0.));
#854=DIRECTION('center_axis',(0.,0.,1.));
#855=DIRECTION('ref_axis',(-0.204083341603751,0.978953517629845,0.));
#856=DIRECTION('',(0.,0.,-1.));
#857=DIRECTION('center_axis',(0.,0.,1.));
#858=DIRECTION('ref_axis',(-0.204083341603751,0.978953517629845,0.));
#859=DIRECTION('center_axis',(0.,0.,-1.));
#860=DIRECTION('ref_axis',(1.,0.,0.));
#861=DIRECTION('center_axis',(0.,0.,-1.));
#862=DIRECTION('ref_axis',(-1.,0.,-4.46719247218154E-17));
#863=DIRECTION('',(1.,0.,0.));
#864=DIRECTION('',(1.,0.,0.));
#865=DIRECTION('center_axis',(0.,0.,-1.));
#866=DIRECTION('ref_axis',(-1.,0.,0.));
#867=DIRECTION('center_axis',(0.,0.,-1.));
#868=DIRECTION('ref_axis',(1.,0.,0.));
#869=DIRECTION('center_axis',(0.,0.,-1.));
#870=DIRECTION('ref_axis',(1.,0.,0.));
#871=DIRECTION('center_axis',(0.,0.,1.));
#872=DIRECTION('ref_axis',(-1.,0.,0.));
#873=DIRECTION('center_axis',(0.,0.,1.));
#874=DIRECTION('ref_axis',(-1.,0.,0.));
#875=DIRECTION('',(0.,0.,1.));
#876=DIRECTION('center_axis',(0.,1.,0.));
#877=DIRECTION('ref_axis',(0.,0.,-1.));
#878=DIRECTION('center_axis',(0.,1.,0.));
#879=DIRECTION('ref_axis',(0.,0.,-1.));
#880=DIRECTION('',(0.,0.,1.));
#881=DIRECTION('center_axis',(-4.46719247218154E-17,4.46719247218153E-17,
1.));
#882=DIRECTION('ref_axis',(-1.,0.,-4.46719247218154E-17));
#883=DIRECTION('center_axis',(0.,0.,-1.));
#884=DIRECTION('ref_axis',(1.,0.,0.));
#885=DIRECTION('',(0.,0.,-1.));
#886=DIRECTION('center_axis',(0.,0.,-1.));
#887=DIRECTION('ref_axis',(1.,0.,0.));
#888=DIRECTION('',(0.,0.,-1.));
#889=CARTESIAN_POINT('',(0.,0.,0.));
#890=CARTESIAN_POINT('Origin',(31.8942891670643,-54.9335218320949,-3.97718048531426));
#891=CARTESIAN_POINT('',(31.8942891670643,-54.9335218320949,-0.977180485314268));
#892=CARTESIAN_POINT('',(31.8942891670643,-57.5525787076698,-0.977180485314267));
#893=CARTESIAN_POINT('',(31.8942891670642,-52.4080500388351,-0.977180485314269));
#894=CARTESIAN_POINT('',(31.8942891670642,-54.9335218320949,0.999999995685737));
#895=CARTESIAN_POINT('',(31.8942891670643,-54.9335218320949,-3.97718048531426));
#896=CARTESIAN_POINT('',(31.8942891670643,-57.5525787076698,0.999999995685737));
#897=CARTESIAN_POINT('',(31.8942891670642,-54.9335218320949,0.999999995685737));
#898=CARTESIAN_POINT('',(31.8942891670644,-57.5525787076698,-3.97718048531426));
#899=CARTESIAN_POINT('Origin',(31.8942891670644,-57.5525787076698,-3.97718048531426));
#900=CARTESIAN_POINT('',(41.2337515929983,-57.5525787076696,-0.977180485314099));
#901=CARTESIAN_POINT('',(34.2267893750589,-57.5525787076697,-0.977180485314225));
#902=CARTESIAN_POINT('',(41.2337515929982,-57.5525787076696,0.999999995685902));
#903=CARTESIAN_POINT('',(31.8942891670643,-57.5525787076698,0.999999995685737));
#904=CARTESIAN_POINT('',(41.2337515929983,-57.5525787076696,-3.9771804853141));
#905=CARTESIAN_POINT('Origin',(41.2337515929983,-57.5525787076696,-3.9771804853141));
#906=CARTESIAN_POINT('',(41.2337515929982,-54.9335218320947,-0.9771804853141));
#907=CARTESIAN_POINT('',(41.2337515929982,-53.7175784766224,-0.9771804853141));
#908=CARTESIAN_POINT('',(41.2337515929982,-54.9335218320947,0.999999995685902));
#909=CARTESIAN_POINT('',(41.2337515929982,-57.5525787076696,0.999999995685902));
#910=CARTESIAN_POINT('',(41.2337515929983,-54.9335218320947,-3.9771804853141));
#911=CARTESIAN_POINT('Origin',(41.2337515929983,-54.9335218320947,-3.9771804853141));
#912=CARTESIAN_POINT('',(38.8965205880258,-54.9335218320947,-0.977180485314142));
#913=CARTESIAN_POINT('',(41.2337515929982,-54.9335218320947,0.999999995685902));
#914=CARTESIAN_POINT('Origin',(36.5640203800312,-56.2430502698822,0.999999995685819));
#915=CARTESIAN_POINT('Origin',(31.8942891670641,-45.8436530381589,-3.97718048531427));
#916=CARTESIAN_POINT('',(31.8942891670641,-45.8436530381589,-0.977180485314272));
#917=CARTESIAN_POINT('',(31.8942891670641,-48.5525785735593,-0.977180485314271));
#918=CARTESIAN_POINT('',(31.8942891670641,-47.8631156418672,-0.977180485314271));
#919=CARTESIAN_POINT('',(31.894289167064,-45.8436530381589,0.999999995685729));
#920=CARTESIAN_POINT('',(31.8942891670641,-45.8436530381589,-3.97718048531427));
#921=CARTESIAN_POINT('',(31.8942891670641,-47.5,0.99999999568573));
#922=CARTESIAN_POINT('',(31.8942891670639,-40.6093265190798,1.));
#923=CARTESIAN_POINT('',(31.8942891670641,-48.5525785735593,0.999999995685729));
#924=CARTESIAN_POINT('',(31.894289167064,-45.8436530381589,0.999999995685729));
#925=CARTESIAN_POINT('',(31.8942891670642,-48.5525785735593,-3.97718048531427));
#926=CARTESIAN_POINT('Origin',(31.8942891670642,-48.5525785735593,-3.97718048531427));
#927=CARTESIAN_POINT('',(41.2337515929981,-48.5525785735591,-0.977180485314103));
#928=CARTESIAN_POINT('',(34.2267893750587,-48.5525785735593,-0.977180485314229));
#929=CARTESIAN_POINT('',(41.233751592998,-48.5525785735591,0.999999995685902));
#930=CARTESIAN_POINT('',(31.8942891670641,-48.5525785735593,0.999999995685729));
#931=CARTESIAN_POINT('',(41.2337515929981,-48.5525785735591,-3.9771804853141));
#932=CARTESIAN_POINT('Origin',(36.564020380031,-47.198115805859,0.999999995685814));
#933=CARTESIAN_POINT('',(41.233751592998,-47.5,0.999999995685901));
#934=CARTESIAN_POINT('',(59.5,-47.5,1.));
#935=CARTESIAN_POINT('',(41.233751592998,-48.5525785735591,0.999999995685902));
#936=CARTESIAN_POINT('Origin',(41.2337515929981,-48.5525785735591,-3.9771804853141));
#937=CARTESIAN_POINT('',(41.233751592998,-45.8436530381587,-0.977180485314105));
#938=CARTESIAN_POINT('',(41.2337515929981,-49.2175784095672,-0.977180485314103));
#939=CARTESIAN_POINT('',(41.233751592998,-45.8436530381587,0.999999995685897));
#940=CARTESIAN_POINT('',(41.2337515929979,-41.9637892867798,1.));
#941=CARTESIAN_POINT('',(41.2337515929981,-45.8436530381587,-3.9771804853141));
#942=CARTESIAN_POINT('Origin',(41.2337515929981,-45.8436530381587,-3.9771804853141));
#943=CARTESIAN_POINT('',(38.8965205880256,-45.8436530381588,-0.977180485314146));
#944=CARTESIAN_POINT('',(51.6168757964992,-45.8436530381585,1.));
#945=CARTESIAN_POINT('Origin',(36.5592895830533,-49.8825782455753,-0.977180485314187));
#946=CARTESIAN_POINT('',(28.9942907220005,-59.,-0.977180485314318));
#947=CARTESIAN_POINT('',(44.1242884441066,-59.,-0.977180485314046));
#948=CARTESIAN_POINT('',(26.7796447915267,-59.,-0.977180485314358));
#949=CARTESIAN_POINT('',(28.9942907220001,-39.8125780606428,-0.977180485314327));
#950=CARTESIAN_POINT('',(28.9942907220002,-44.8475781531091,-0.977180485314325));
#951=CARTESIAN_POINT('',(44.1242884441061,-39.8125780606424,-0.977180485314055));
#952=CARTESIAN_POINT('',(40.3417890135796,-39.8125780606425,-0.977180485314123));
#953=CARTESIAN_POINT('',(44.1242884441065,-54.9175783380415,-0.977180485314048));
#954=CARTESIAN_POINT('',(41.3485911203797,-41.8319264552338,-0.977180485314101));
#955=CARTESIAN_POINT('Origin',(42.0985911203797,-41.8319264552338,-0.977180485314088));
#956=CARTESIAN_POINT('',(30.3485911203797,-41.8319264552341,-0.977180485314297));
#957=CARTESIAN_POINT('Origin',(31.0985911203797,-41.831926455234,-0.977180485314284));
#958=CARTESIAN_POINT('Origin',(28.9942907220002,-39.8125780606428,-3.97718048531433));
#959=CARTESIAN_POINT('',(28.9942907220001,-39.8125780606428,-2.));
#960=CARTESIAN_POINT('',(28.9942907220005,-59.,-2.));
#961=CARTESIAN_POINT('',(28.9942907220001,-37.5937890303218,-2.));
#962=CARTESIAN_POINT('',(28.9942907220002,-39.8125780606428,-3.97718048531433));
#963=CARTESIAN_POINT('',(28.9942907220005,-59.,-1.98859024265706));
#964=CARTESIAN_POINT('Origin',(44.1242884441062,-39.8125780606424,-3.97718048531406));
#965=CARTESIAN_POINT('',(44.1242884441062,-39.8125780606424,-2.));
#966=CARTESIAN_POINT('',(53.0621442220531,-39.8125780606422,-2.));
#967=CARTESIAN_POINT('',(44.1242884441062,-39.8125780606424,-3.97718048531406));
#968=CARTESIAN_POINT('Origin',(44.1242884441067,-59.9525784305079,-3.97718048531404));
#969=CARTESIAN_POINT('',(44.1242884441066,-59.,-2.));
#970=CARTESIAN_POINT('',(44.1242884441063,-47.6637892152541,-2.));
#971=CARTESIAN_POINT('',(44.1242884441066,-59.,-1.98859024265678));
#972=CARTESIAN_POINT('Origin',(17.,-59.,0.));
#973=CARTESIAN_POINT('',(57.,-59.,-2.));
#974=CARTESIAN_POINT('',(39.5,-59.,-2.));
#975=CARTESIAN_POINT('',(57.,-59.,3.));
#976=CARTESIAN_POINT('',(57.,-59.,0.));
#977=CARTESIAN_POINT('',(17.,-59.,3.));
#978=CARTESIAN_POINT('',(17.,-59.,3.));
#979=CARTESIAN_POINT('',(17.,-59.,-2.));
#980=CARTESIAN_POINT('',(17.,-59.,0.));
#981=CARTESIAN_POINT('',(39.5,-59.,-2.));
#982=CARTESIAN_POINT('Origin',(57.,-47.5,0.));
#983=CARTESIAN_POINT('',(57.,-47.5,3.));
#984=CARTESIAN_POINT('',(17.,-47.5,3.));
#985=CARTESIAN_POINT('',(37.,-47.5,3.));
#986=CARTESIAN_POINT('',(57.,-47.5,1.));
#987=CARTESIAN_POINT('',(57.,-47.5,0.));
#988=CARTESIAN_POINT('',(59.5,-47.5,1.));
#989=CARTESIAN_POINT('',(17.,-47.5,1.));
#990=CARTESIAN_POINT('',(59.5,-47.5,1.));
#991=CARTESIAN_POINT('',(17.,-47.5,0.));
#992=CARTESIAN_POINT('Origin',(31.0985911203798,-41.831926455234,-3.97718048531429));
#993=CARTESIAN_POINT('',(30.3485911203797,-41.831926455234,0.999819514685698));
#994=CARTESIAN_POINT('',(30.3485911203798,-41.8319264552341,-3.9771804853143));
#995=CARTESIAN_POINT('Origin',(31.0985911203797,-41.831926455234,0.999819514685711));
#996=CARTESIAN_POINT('Origin',(31.0985911203797,-41.831926455234,0.999819514685711));
#997=CARTESIAN_POINT('Origin',(42.0985911203798,-41.8319264552338,-3.97718048531409));
#998=CARTESIAN_POINT('',(41.3485911203797,-41.8319264552338,0.999819514685893));
#999=CARTESIAN_POINT('',(41.3485911203798,-41.8319264552338,-3.97718048531411));
#1000=CARTESIAN_POINT('Origin',(42.0985911203797,-41.8319264552338,0.999819514685907));
#1001=CARTESIAN_POINT('Origin',(42.0985911203797,-41.8319264552338,0.999819514685907));
#1002=CARTESIAN_POINT('Origin',(17.,-40.,0.));
#1003=CARTESIAN_POINT('',(17.,-40.,-2.));
#1004=CARTESIAN_POINT('',(17.,-37.6875,-2.));
#1005=CARTESIAN_POINT('',(17.,-45.,3.));
#1006=CARTESIAN_POINT('',(17.,-40.,1.));
#1007=CARTESIAN_POINT('',(17.,-40.,1.));
#1008=CARTESIAN_POINT('',(17.,-40.,0.));
#1009=CARTESIAN_POINT('Origin',(57.,-50.,0.));
#1010=CARTESIAN_POINT('',(57.,-40.,-2.));
#1011=CARTESIAN_POINT('',(57.,-42.6875,-2.));
#1012=CARTESIAN_POINT('',(57.,-40.,1.));
#1013=CARTESIAN_POINT('',(57.,-40.,0.));
#1014=CARTESIAN_POINT('',(57.,-46.,1.));
#1015=CARTESIAN_POINT('',(57.,-50.,3.));
#1016=CARTESIAN_POINT('Origin',(30.8563553195417,-40.,0.5));
#1017=CARTESIAN_POINT('',(32.0550839504576,-37.2499000619209,-2.));
#1018=CARTESIAN_POINT('',(30.8563553195417,-37.,-2.));
#1019=CARTESIAN_POINT('Origin',(30.8563553195417,-40.,-2.));
#1020=CARTESIAN_POINT('',(30.8563553195417,-37.,1.));
#1021=CARTESIAN_POINT('',(30.8563553195417,-37.,0.5));
#1022=CARTESIAN_POINT('',(32.0550839504576,-37.2499000619209,1.));
#1023=CARTESIAN_POINT('Origin',(30.8563553195417,-40.,1.));
#1024=CARTESIAN_POINT('',(32.0550839504576,-37.2499000619209,0.5));
#1025=CARTESIAN_POINT('Origin',(36.8499984741211,-26.2495003096046,0.5));
#1026=CARTESIAN_POINT('',(41.6449129977846,-37.2499000619209,1.));
#1027=CARTESIAN_POINT('Origin',(36.8499984741211,-26.2495003096046,1.));
#1028=CARTESIAN_POINT('',(41.6449129977846,-37.2499000619209,-2.));
#1029=CARTESIAN_POINT('',(41.6449129977846,-37.2499000619209,0.5));
#1030=CARTESIAN_POINT('Origin',(36.8499984741211,-26.2495003096046,-2.));
#1031=CARTESIAN_POINT('Origin',(62.,-35.375,1.));
#1032=CARTESIAN_POINT('',(54.,-37.,1.));
#1033=CARTESIAN_POINT('Origin',(54.,-40.,1.));
#1034=CARTESIAN_POINT('',(42.8436416287004,-37.,1.));
#1035=CARTESIAN_POINT('',(54.,-37.,1.));
#1036=CARTESIAN_POINT('Origin',(42.8436416287004,-39.9999999999999,1.));
#1037=CARTESIAN_POINT('',(20.,-37.,1.));
#1038=CARTESIAN_POINT('',(42.3361700621413,-37.,1.));
#1039=CARTESIAN_POINT('Origin',(20.,-40.,1.));
#1040=CARTESIAN_POINT('',(19.6133804137745,-41.7656997425238,1.));
#1041=CARTESIAN_POINT('Origin',(21.3633804137745,-41.7656997425238,1.));
#1042=CARTESIAN_POINT('',(50.6342438653945,-41.7656997425238,1.));
#1043=CARTESIAN_POINT('Origin',(52.3842438653945,-41.7656997425238,1.));
#1044=CARTESIAN_POINT('Origin',(42.8436416287004,-39.9999999999999,0.5));
#1045=CARTESIAN_POINT('',(42.8436416287004,-37.,-2.));
#1046=CARTESIAN_POINT('',(42.8436416287004,-37.,0.5));
#1047=CARTESIAN_POINT('Origin',(42.8436416287004,-39.9999999999999,-2.));
#1048=CARTESIAN_POINT('Origin',(62.,-35.375,-2.));
#1049=CARTESIAN_POINT('',(20.,-37.,-2.));
#1050=CARTESIAN_POINT('Origin',(20.,-40.,-2.));
#1051=CARTESIAN_POINT('',(42.3361700621413,-37.,-2.));
#1052=CARTESIAN_POINT('',(54.,-37.,-2.));
#1053=CARTESIAN_POINT('',(58.,-37.,-2.));
#1054=CARTESIAN_POINT('Origin',(54.,-40.,-2.));
#1055=CARTESIAN_POINT('',(50.6342438653945,-41.7656997425238,-2.));
#1056=CARTESIAN_POINT('Origin',(52.3842438653945,-41.7656997425238,-2.));
#1057=CARTESIAN_POINT('',(19.6133804137745,-41.7656997425238,-2.));
#1058=CARTESIAN_POINT('Origin',(21.3633804137745,-41.7656997425238,-2.));
#1059=CARTESIAN_POINT('Origin',(17.,-50.,3.));
#1060=CARTESIAN_POINT('Origin',(54.,-40.,0.5));
#1061=CARTESIAN_POINT('',(54.,-37.,0.));
#1062=CARTESIAN_POINT('Origin',(22.6723401242826,-37.,0.));
#1063=CARTESIAN_POINT('Origin',(22.6723401242826,-37.,0.));
#1064=CARTESIAN_POINT('',(20.,-37.,0.));
#1065=CARTESIAN_POINT('Origin',(20.,-40.,0.5));
#1066=CARTESIAN_POINT('Origin',(21.3633804137745,-41.7656997425238,0.5));
#1067=CARTESIAN_POINT('',(19.6133804137745,-41.7656997425238,0.5));
#1068=CARTESIAN_POINT('Origin',(52.3842438653945,-41.7656997425238,0.5));
#1069=CARTESIAN_POINT('',(50.6342438653945,-41.7656997425238,0.5));
#1070=UNCERTAINTY_MEASURE_WITH_UNIT(LENGTH_MEASURE(0.01),#1074,
'DISTANCE_ACCURACY_VALUE',
'Maximum model space distance between geometric entities at asserted c
onnectivities');
#1071=UNCERTAINTY_MEASURE_WITH_UNIT(LENGTH_MEASURE(0.01),#1074,
'DISTANCE_ACCURACY_VALUE',
'Maximum model space distance between geometric entities at asserted c
onnectivities');
#1072=(
GEOMETRIC_REPRESENTATION_CONTEXT(3)
GLOBAL_UNCERTAINTY_ASSIGNED_CONTEXT((#1070))
GLOBAL_UNIT_ASSIGNED_CONTEXT((#1074,#1076,#1077))
REPRESENTATION_CONTEXT('','3D')
);
#1073=(
GEOMETRIC_REPRESENTATION_CONTEXT(3)
GLOBAL_UNCERTAINTY_ASSIGNED_CONTEXT((#1071))
GLOBAL_UNIT_ASSIGNED_CONTEXT((#1074,#1076,#1077))
REPRESENTATION_CONTEXT('','3D')
);
#1074=(
LENGTH_UNIT()
NAMED_UNIT(*)
SI_UNIT(.MILLI.,.METRE.)
);
#1075=(
LENGTH_UNIT()
NAMED_UNIT(*)
SI_UNIT($,.METRE.)
);
#1076=(
NAMED_UNIT(*)
PLANE_ANGLE_UNIT()
SI_UNIT($,.RADIAN.)
);
#1077=(
NAMED_UNIT(*)
SI_UNIT($,.STERADIAN.)
SOLID_ANGLE_UNIT()
);
#1078=SHAPE_DEFINITION_REPRESENTATION(#1079,#1080);
#1079=PRODUCT_DEFINITION_SHAPE('',$,#1082);
#1080=SHAPE_REPRESENTATION('',(#660),#1072);
#1081=PRODUCT_DEFINITION_CONTEXT('part definition',#1086,'design');
#1082=PRODUCT_DEFINITION('Document',
'3DChameleon (home sensor bracket) v1',#1083,#1081);
#1083=PRODUCT_DEFINITION_FORMATION('',$,#1088);
#1084=PRODUCT_RELATED_PRODUCT_CATEGORY(
'3DChameleon (home sensor bracket) v1',
'3DChameleon (home sensor bracket) v1',(#1088));
#1085=APPLICATION_PROTOCOL_DEFINITION('international standard',
'automotive_design',2009,#1086);
#1086=APPLICATION_CONTEXT(
'Core Data for Automotive Mechanical Design Process');
#1087=PRODUCT_CONTEXT('part definition',#1086,'mechanical');
#1088=PRODUCT('Document','3DChameleon (home sensor bracket) v1',$,(#1087));
#1089=PRESENTATION_STYLE_ASSIGNMENT((#1091));
#1090=PRESENTATION_STYLE_ASSIGNMENT((#1092));
#1091=SURFACE_STYLE_USAGE(.BOTH.,#1093);
#1092=SURFACE_STYLE_USAGE(.BOTH.,#1094);
#1093=SURFACE_SIDE_STYLE('',(#1095));
#1094=SURFACE_SIDE_STYLE('',(#1096));
#1095=SURFACE_STYLE_FILL_AREA(#1097);
#1096=SURFACE_STYLE_FILL_AREA(#1098);
#1097=FILL_AREA_STYLE('Steel - Satin',(#1099));
#1098=FILL_AREA_STYLE('Opaque(118,118,118)',(#1100));
#1099=FILL_AREA_STYLE_COLOUR('Steel - Satin',#1101);
#1100=FILL_AREA_STYLE_COLOUR('Opaque(118,118,118)',#1102);
#1101=COLOUR_RGB('Steel - Satin',0.627450980392157,0.627450980392157,0.627450980392157);
#1102=COLOUR_RGB('Opaque(118,118,118)',0.462745098039216,0.462745098039216,
0.462745098039216);
ENDSEC;
END-ISO-10303-21;
